# xmcd
#
# Track frame offsets:
#	150
#	6175
#	11325
#	21675
#	27238
#	38688
#	49125
#	59188
#	79200
#	86925
#	103000
#	116438
#
# Disc length: 1754 seconds
#
# Revision: 0
# Processed by: cddbd v1.5.1PL2 Copyright (c) Steve Scherf et al.
# Submitted via: dBpowerAMP V4.0
#
DISCID=9c06d80c
DTITLE=Tammy Wynette - First Lady of Country
DYEAR=1900
DGENRE=Country
TTITLE0=Welcome to My World
TTITLE1=Your Good Girls Gonna Go Bad
TTITLE2=Another Chance
TTITLE3=Singing My Song
TTITLE4=D.I.V.O.R.C.E.
TTITLE5=Fairy Trails
TTITLE6=Womanhood
TTITLE7=Amazing Grace - Medley
TTITLE8=When the Green Grass Grows Over
TTITLE9=I Can Make It On My Own
TTITLE10=Stand By Your Man
TTITLE11=Cryin' In The Rain
EXTD=
EXTT0=
EXTT1=
EXTT2=
EXTT3=
EXTT4=
EXTT5=
EXTT6=
EXTT7=
EXTT8=
EXTT9=
EXTT10=
EXTT11=
PLAYORDER=
